<?xml version="1.0" encoding="UTF-8"?>
<svg xmlns="http://www.w3.org/2000/svg" id="Capa_1" width="995.43" height="241.04" version="1.1" viewBox="0 0 995.43 241.04">
  <defs>
    <style>
      .st0 {
        stroke-width: 9px;
      }

      .st0, .st1, .st2 {
        fill: none;
        stroke: #d2dad1;
        stroke-miterlimit: 10;
      }

      .st0, .st2 {
        stroke-linecap: round;
      }

      .st3 {
        fill: #fff;
      }

      .st1, .st2 {
        stroke-width: 7px;
      }

      .st4 {
        fill: #7d6da9;
      }
    </style>
  </defs>
  <g>
    <path class="st3" d="M272.1,120.24c.34,0,.67.06,1.01.19s.66.34.97.65l5.63,5.92c-2.46,3.22-5.55,5.65-9.26,7.29-3.71,1.64-8.1,2.46-13.17,2.46-4.65,0-8.81-.79-12.5-2.37-3.68-1.58-6.8-3.77-9.37-6.55-2.56-2.79-4.53-6.09-5.9-9.91-1.37-3.82-2.06-7.97-2.06-12.45s.78-8.76,2.35-12.58c1.57-3.82,3.76-7.12,6.57-9.89s6.18-4.93,10.1-6.47c3.92-1.54,8.25-2.31,12.98-2.31,2.3,0,4.46.2,6.49.61,2.03.41,3.93.97,5.69,1.68,1.76.71,3.39,1.57,4.87,2.56,1.48.99,2.8,2.09,3.95,3.3l-4.79,6.43c-.31.39-.67.75-1.09,1.07-.42.32-1.01.48-1.76.48-.5,0-.98-.11-1.43-.34-.45-.22-.92-.5-1.43-.82-.5-.32-1.06-.67-1.66-1.05-.6-.38-1.32-.73-2.14-1.05-.83-.32-1.79-.59-2.9-.82-1.11-.22-2.4-.34-3.88-.34-2.58,0-4.93.46-7.06,1.36-2.13.91-3.96,2.21-5.48,3.91-1.53,1.69-2.72,3.75-3.57,6.15-.85,2.41-1.28,5.11-1.28,8.11s.43,5.92,1.28,8.36c.85,2.44,2.02,4.49,3.49,6.15,1.47,1.67,3.18,2.93,5.15,3.8,1.96.87,4.06,1.3,6.3,1.3,1.29,0,2.46-.06,3.53-.19,1.06-.13,2.05-.34,2.96-.65.91-.31,1.78-.71,2.6-1.2.83-.49,1.66-1.1,2.5-1.83.34-.28.7-.51,1.09-.69.39-.18.8-.27,1.22-.27Z"></path>
    <path class="st3" d="M311.62,124.86c1.9,0,3.6-.31,5.1-.95,1.5-.63,2.76-1.53,3.8-2.71,1.04-1.18,1.83-2.61,2.37-4.3.55-1.69.82-3.62.82-5.78v-36.25h14.2v36.25c0,3.75-.61,7.2-1.83,10.33-1.22,3.14-2.96,5.84-5.23,8.11-2.27,2.27-5.03,4.03-8.27,5.29-3.25,1.26-6.9,1.89-10.96,1.89s-7.76-.63-11-1.89c-3.25-1.26-6.01-3.02-8.27-5.29-2.27-2.27-4-4.97-5.21-8.11-1.2-3.14-1.81-6.58-1.81-10.33v-36.25h14.2v36.2c0,2.16.27,4.08.82,5.78.55,1.69,1.34,3.14,2.37,4.33,1.04,1.19,2.3,2.1,3.8,2.73,1.5.63,3.2.95,5.1.95Z"></path>
    <path class="st3" d="M361.35,124.73h22.68v11.34h-36.88v-61.19h14.2v49.85Z"></path>
    <path class="st3" d="M427.62,74.88v11.26h-17.22v49.94h-14.2v-49.94h-17.22v-11.26h48.64Z"></path>
    <path class="st3" d="M449.04,136.07h-14.28v-61.19h14.28v61.19Z"></path>
    <path class="st3" d="M455.34,74.88h11.42c1.23,0,2.24.28,3.02.84.78.56,1.34,1.3,1.68,2.23l11.84,32.76c.53,1.43,1.07,2.98,1.62,4.66s1.06,3.44,1.53,5.29c.39-1.85.85-3.61,1.36-5.29s1.03-3.23,1.53-4.66l11.76-32.76c.28-.78.83-1.49,1.64-2.12.81-.63,1.81-.94,2.98-.94h11.51l-24.53,61.19h-12.85l-24.53-61.19Z"></path>
    <path class="st3" d="M570.85,136.07h-11c-1.23,0-2.25-.29-3.04-.86-.8-.57-1.35-1.31-1.66-2.21l-3.61-10.67h-23.27l-3.61,10.67c-.28.78-.83,1.49-1.64,2.12-.81.63-1.81.94-2.98.94h-11.09l23.69-61.19h14.53l23.69,61.19ZM531.53,112.68h16.72l-5.63-16.76c-.36-1.06-.79-2.32-1.28-3.76-.49-1.44-.97-3-1.45-4.68-.45,1.71-.91,3.29-1.39,4.75-.48,1.46-.92,2.72-1.34,3.78l-5.63,16.67Z"></path>
    <path class="st3" d="M647.54,105.45c0,4.42-.76,8.51-2.29,12.24-1.53,3.74-3.67,6.97-6.45,9.7s-6.11,4.86-10.02,6.38c-3.91,1.53-8.24,2.29-13,2.29h-23.77v-61.19h23.77c4.76,0,9.09.77,13,2.31,3.91,1.54,7.25,3.67,10.02,6.38,2.77,2.72,4.92,5.94,6.45,9.68,1.53,3.74,2.29,7.81,2.29,12.2ZM633,105.45c0-3.02-.39-5.75-1.18-8.19-.78-2.44-1.91-4.5-3.38-6.19-1.47-1.69-3.27-3-5.4-3.91-2.13-.91-4.55-1.36-7.27-1.36h-9.49v39.35h9.49c2.72,0,5.14-.46,7.27-1.37,2.13-.91,3.93-2.21,5.4-3.91,1.47-1.69,2.6-3.76,3.38-6.2.78-2.44,1.18-5.18,1.18-8.23Z"></path>
    <path class="st3" d="M693.74,74.88v10.92h-25.12v14.28h19.24v10.5h-19.24v14.57h25.12v10.92h-39.4v-61.19h39.4Z"></path>
    <path class="st3" d="M715.99,113.43v22.64h-14.2v-61.19h19.91c4.42,0,8.2.46,11.32,1.36,3.12.91,5.67,2.18,7.64,3.8,1.97,1.62,3.41,3.54,4.3,5.75.9,2.21,1.34,4.62,1.34,7.22,0,1.99-.27,3.86-.8,5.63-.53,1.76-1.32,3.4-2.37,4.89-1.05,1.5-2.34,2.83-3.86,4.01-1.53,1.18-3.28,2.14-5.27,2.9.95.48,1.84,1.06,2.67,1.76.83.7,1.55,1.55,2.16,2.56l13.02,21.29h-12.85c-2.38,0-4.09-.9-5.12-2.69l-10.16-17.77c-.45-.78-.97-1.34-1.57-1.68-.6-.34-1.45-.5-2.54-.5h-3.61ZM715.99,103.65h5.71c1.93,0,3.58-.25,4.93-.74,1.36-.49,2.47-1.17,3.34-2.04.87-.87,1.5-1.88,1.89-3.05.39-1.16.59-2.41.59-3.76,0-2.69-.88-4.79-2.62-6.3-1.75-1.51-4.46-2.27-8.13-2.27h-5.71v18.14Z"></path>
    <path class="st3" d="M797.05,74.88v10.92h-25.12v14.28h19.24v10.5h-19.24v14.57h25.12v10.92h-39.4v-61.19h39.4Z"></path>
    <path class="st3" d="M846.23,120.24c.34,0,.67.06,1.01.19s.66.34.97.65l5.63,5.92c-2.46,3.22-5.55,5.65-9.26,7.29-3.71,1.64-8.1,2.46-13.17,2.46-4.65,0-8.81-.79-12.5-2.37-3.68-1.58-6.8-3.77-9.37-6.55-2.56-2.79-4.53-6.09-5.9-9.91-1.37-3.82-2.06-7.97-2.06-12.45s.78-8.76,2.35-12.58c1.57-3.82,3.76-7.12,6.57-9.89s6.18-4.93,10.1-6.47c3.92-1.54,8.25-2.31,12.98-2.31,2.3,0,4.46.2,6.49.61,2.03.41,3.93.97,5.69,1.68,1.76.71,3.39,1.57,4.87,2.56,1.48.99,2.8,2.09,3.95,3.3l-4.79,6.43c-.31.39-.67.75-1.09,1.07-.42.32-1.01.48-1.76.48-.5,0-.98-.11-1.43-.34-.45-.22-.92-.5-1.43-.82-.5-.32-1.06-.67-1.66-1.05-.6-.38-1.32-.73-2.14-1.05-.83-.32-1.79-.59-2.9-.82-1.11-.22-2.4-.34-3.88-.34-2.58,0-4.93.46-7.06,1.36-2.13.91-3.96,2.21-5.48,3.91-1.53,1.69-2.72,3.75-3.57,6.15-.85,2.41-1.28,5.11-1.28,8.11s.43,5.92,1.28,8.36c.85,2.44,2.02,4.49,3.49,6.15,1.47,1.67,3.18,2.93,5.15,3.8,1.96.87,4.06,1.3,6.3,1.3,1.29,0,2.46-.06,3.53-.19,1.06-.13,2.05-.34,2.96-.65.91-.31,1.78-.71,2.6-1.2.83-.49,1.66-1.1,2.5-1.83.34-.28.7-.51,1.09-.69.39-.18.8-.27,1.22-.27Z"></path>
    <path class="st3" d="M913.73,136.07h-14.28v-25.87h-24.86v25.87h-14.28v-61.19h14.28v25.58h24.86v-25.58h14.28v61.19Z"></path>
    <path class="st3" d="M984.2,105.45c0,4.42-.76,8.54-2.29,12.35-1.53,3.81-3.67,7.12-6.45,9.93s-6.11,5.02-10.02,6.61c-3.91,1.6-8.24,2.39-13,2.39s-9.1-.8-13.02-2.39c-3.92-1.6-7.27-3.8-10.06-6.61-2.79-2.81-4.94-6.12-6.47-9.93-1.53-3.81-2.29-7.92-2.29-12.35s.76-8.54,2.29-12.35c1.53-3.81,3.68-7.11,6.47-9.91,2.79-2.8,6.14-5,10.06-6.59,3.92-1.6,8.26-2.39,13.02-2.39s9.09.81,13,2.42c3.91,1.61,7.25,3.82,10.02,6.62,2.77,2.8,4.92,6.1,6.45,9.91,1.53,3.81,2.29,7.91,2.29,12.31ZM969.67,105.45c0-3.02-.39-5.75-1.18-8.17-.78-2.42-1.91-4.47-3.38-6.15-1.47-1.68-3.27-2.97-5.4-3.86-2.13-.9-4.55-1.34-7.27-1.34s-5.19.45-7.33,1.34c-2.14.9-3.95,2.18-5.42,3.86s-2.6,3.73-3.38,6.15c-.78,2.42-1.18,5.15-1.18,8.17s.39,5.79,1.18,8.21c.78,2.42,1.91,4.47,3.38,6.15,1.47,1.68,3.28,2.96,5.42,3.84,2.14.88,4.58,1.32,7.33,1.32s5.14-.44,7.27-1.32c2.13-.88,3.93-2.16,5.4-3.84,1.47-1.68,2.6-3.73,3.38-6.15.78-2.42,1.18-5.16,1.18-8.21Z"></path>
  </g>
  <g>
    <path class="st3" d="M534.64,175.82c1.4.86,3.46,1.58,5.62,1.58,3.2,0,5.08-1.69,5.08-4.14,0-2.27-1.3-3.56-4.57-4.82-3.96-1.4-6.41-3.46-6.41-6.88,0-3.78,3.13-6.59,7.85-6.59,2.48,0,4.28.58,5.36,1.19l-.86,2.56c-.79-.43-2.41-1.15-4.61-1.15-3.31,0-4.57,1.98-4.57,3.64,0,2.27,1.48,3.38,4.82,4.68,4.1,1.58,6.19,3.56,6.19,7.13,0,3.74-2.77,6.98-8.49,6.98-2.34,0-4.9-.68-6.19-1.55l.79-2.63Z"></path>
    <path class="st3" d="M554.69,171.5c.07,4.28,2.81,6.05,5.98,6.05,2.27,0,3.64-.4,4.82-.9l.54,2.27c-1.12.5-3.02,1.08-5.8,1.08-5.36,0-8.57-3.53-8.57-8.78s3.1-9.4,8.17-9.4c5.69,0,7.2,5,7.2,8.21,0,.65-.07,1.15-.11,1.48h-12.24ZM563.98,169.23c.04-2.02-.83-5.15-4.39-5.15-3.2,0-4.61,2.95-4.86,5.15h9.25Z"></path>
    <path class="st3" d="M585.97,162.22c-.07,1.26-.14,2.66-.14,4.79v10.11c0,4-.79,6.44-2.48,7.96-1.69,1.58-4.14,2.09-6.34,2.09s-4.39-.5-5.79-1.44l.79-2.41c1.15.72,2.95,1.37,5.11,1.37,3.24,0,5.62-1.69,5.62-6.08v-1.94h-.07c-.97,1.62-2.84,2.92-5.54,2.92-4.32,0-7.42-3.67-7.42-8.5,0-5.9,3.85-9.25,7.85-9.25,3.02,0,4.68,1.58,5.44,3.02h.07l.14-2.63h2.77ZM582.7,169.09c0-.54-.04-1.01-.18-1.44-.58-1.84-2.12-3.35-4.43-3.35-3.02,0-5.18,2.56-5.18,6.59,0,3.42,1.73,6.26,5.15,6.26,1.94,0,3.71-1.22,4.39-3.24.18-.54.25-1.15.25-1.69v-3.13Z"></path>
    <path class="st3" d="M605.66,174.89c0,1.8.04,3.38.14,4.75h-2.81l-.18-2.84h-.07c-.83,1.4-2.66,3.24-5.76,3.24-2.74,0-6.01-1.51-6.01-7.63v-10.19h3.17v9.65c0,3.31,1.01,5.54,3.89,5.54,2.12,0,3.6-1.48,4.18-2.88.18-.47.29-1.04.29-1.62v-10.69h3.17v12.67Z"></path>
    <path class="st3" d="M610.92,167.65c0-2.05-.04-3.82-.14-5.44h2.77l.11,3.42h.14c.79-2.34,2.7-3.82,4.82-3.82.36,0,.61.04.9.11v2.99c-.32-.07-.65-.11-1.08-.11-2.23,0-3.82,1.69-4.25,4.07-.07.43-.14.94-.14,1.48v9.29h-3.13v-11.99Z"></path>
    <path class="st3" d="M638.93,181.94c-1.98,1.04-4,1.44-6.41,1.44-5.9,0-10.91-4.32-10.91-11.23,0-7.42,5.15-13.82,13.14-13.82,6.26,0,10.47,4.39,10.47,10.4,0,5.4-3.02,8.57-6.41,8.57-1.44,0-2.77-.97-2.66-3.17h-.14c-1.26,2.12-2.92,3.17-5.08,3.17s-3.89-1.69-3.89-4.54c0-4.46,3.53-8.53,8.53-8.53,1.55,0,2.92.32,3.85.76l-1.22,6.52c-.54,2.74-.11,4,1.08,4.03,1.84.04,3.89-2.41,3.89-6.59,0-5.22-3.13-8.96-8.71-8.96-5.87,0-10.8,4.64-10.8,11.95,0,6.01,3.92,9.72,9.25,9.72,2.05,0,3.96-.43,5.44-1.26l.58,1.55ZM636.95,166.39c-.36-.11-.97-.25-1.8-.25-3.17,0-5.72,2.99-5.72,6.48,0,1.58.79,2.74,2.38,2.74,2.09,0,4-2.66,4.39-4.9l.76-4.07Z"></path>
    <path class="st3" d="M648.79,176.4c.94.61,2.59,1.26,4.18,1.26,2.3,0,3.38-1.15,3.38-2.59,0-1.51-.9-2.34-3.24-3.2-3.13-1.12-4.61-2.84-4.61-4.93,0-2.81,2.27-5.11,6.01-5.11,1.76,0,3.31.5,4.28,1.08l-.79,2.3c-.68-.43-1.94-1.01-3.56-1.01-1.87,0-2.92,1.08-2.92,2.38,0,1.44,1.04,2.09,3.31,2.95,3.02,1.15,4.57,2.66,4.57,5.26,0,3.06-2.38,5.22-6.52,5.22-1.91,0-3.67-.47-4.9-1.19l.79-2.41Z"></path>
    <path class="st3" d="M672.27,162.22l3.82,10.29c.4,1.15.83,2.52,1.12,3.56h.07c.32-1.04.68-2.38,1.12-3.64l3.46-10.22h3.35l-4.75,12.42c-2.27,5.98-3.82,9.03-5.98,10.91-1.55,1.37-3.1,1.91-3.89,2.05l-.79-2.66c.79-.25,1.84-.76,2.77-1.55.86-.68,1.94-1.91,2.66-3.53.14-.32.25-.58.25-.76s-.07-.43-.22-.83l-6.44-16.05h3.46Z"></path>
    <path class="st3" d="M699.52,157.21v5h4.54v2.41h-4.54v9.4c0,2.16.61,3.38,2.38,3.38.83,0,1.44-.11,1.84-.22l.14,2.38c-.61.25-1.58.43-2.81.43-1.48,0-2.66-.47-3.42-1.33-.9-.94-1.22-2.48-1.22-4.54v-9.5h-2.7v-2.41h2.7v-4.18l3.1-.83Z"></path>
    <path class="st3" d="M707.62,167.65c0-2.05-.04-3.82-.14-5.44h2.77l.11,3.42h.14c.79-2.34,2.7-3.82,4.82-3.82.36,0,.61.04.9.11v2.99c-.32-.07-.65-.11-1.08-.11-2.23,0-3.82,1.69-4.25,4.07-.07.43-.14.94-.14,1.48v9.29h-3.13v-11.99Z"></path>
    <path class="st3" d="M728.86,179.64l-.25-2.2h-.11c-.97,1.37-2.84,2.59-5.33,2.59-3.53,0-5.33-2.48-5.33-5,0-4.21,3.74-6.52,10.47-6.48v-.36c0-1.44-.4-4.03-3.96-4.03-1.62,0-3.31.5-4.54,1.3l-.72-2.09c1.44-.94,3.53-1.55,5.72-1.55,5.33,0,6.62,3.64,6.62,7.13v6.52c0,1.51.07,2.99.29,4.18h-2.88ZM728.39,170.75c-3.46-.07-7.38.54-7.38,3.92,0,2.05,1.37,3.02,2.99,3.02,2.27,0,3.71-1.44,4.21-2.92.11-.32.18-.68.18-1.01v-3.02Z"></path>
    <path class="st3" d="M736.56,166.93c0-1.8-.04-3.28-.14-4.72h2.81l.18,2.88h.07c.86-1.66,2.88-3.28,5.76-3.28,2.41,0,6.16,1.44,6.16,7.42v10.4h-3.17v-10.04c0-2.81-1.04-5.15-4.03-5.15-2.09,0-3.71,1.48-4.25,3.24-.14.4-.22.94-.22,1.48v10.47h-3.17v-12.71Z"></path>
    <path class="st3" d="M768.42,176.94h-.07c-.94,1.73-2.88,3.1-5.69,3.1-4.07,0-7.38-3.53-7.38-8.82,0-6.52,4.21-9.4,7.88-9.4,2.7,0,4.5,1.33,5.36,3.02h.07l.11-2.63h2.99c-.07,1.48-.11,2.99-.11,4.79v19.76h-3.17v-9.83ZM768.42,169.27c0-.43-.04-.94-.14-1.33-.47-1.94-2.16-3.6-4.54-3.6-3.28,0-5.26,2.77-5.26,6.69,0,3.46,1.66,6.48,5.15,6.48,2.05,0,3.82-1.26,4.54-3.46.14-.43.25-1.04.25-1.51v-3.28Z"></path>
    <path class="st3" d="M791.39,174.89c0,1.8.04,3.38.14,4.75h-2.81l-.18-2.84h-.07c-.83,1.4-2.66,3.24-5.76,3.24-2.74,0-6.01-1.51-6.01-7.63v-10.19h3.17v9.65c0,3.31,1.01,5.54,3.89,5.54,2.12,0,3.6-1.48,4.18-2.88.18-.47.29-1.04.29-1.62v-10.69h3.17v12.67Z"></path>
    <path class="st3" d="M800.17,157.32c.04,1.08-.76,1.94-2.02,1.94-1.12,0-1.91-.86-1.91-1.94s.83-1.98,1.98-1.98,1.94.86,1.94,1.98ZM796.64,179.64v-17.42h3.17v17.42h-3.17Z"></path>
    <path class="st3" d="M805.07,154.08h3.17v25.56h-3.17v-25.56Z"></path>
    <path class="st3" d="M829.8,181.94c-1.98,1.04-4,1.44-6.41,1.44-5.9,0-10.91-4.32-10.91-11.23,0-7.42,5.15-13.82,13.14-13.82,6.26,0,10.47,4.39,10.47,10.4,0,5.4-3.02,8.57-6.41,8.57-1.44,0-2.77-.97-2.66-3.17h-.14c-1.26,2.12-2.92,3.17-5.08,3.17s-3.89-1.69-3.89-4.54c0-4.46,3.53-8.53,8.53-8.53,1.55,0,2.92.32,3.85.76l-1.22,6.52c-.54,2.74-.11,4,1.08,4.03,1.84.04,3.89-2.41,3.89-6.59,0-5.22-3.13-8.96-8.71-8.96-5.87,0-10.8,4.64-10.8,11.95,0,6.01,3.92,9.72,9.25,9.72,2.05,0,3.96-.43,5.44-1.26l.58,1.55ZM827.82,166.39c-.36-.11-.97-.25-1.8-.25-3.17,0-5.72,2.99-5.72,6.48,0,1.58.79,2.74,2.38,2.74,2.09,0,4-2.66,4.39-4.9l.76-4.07Z"></path>
    <path class="st3" d="M839.66,176.4c.94.61,2.59,1.26,4.18,1.26,2.3,0,3.38-1.15,3.38-2.59,0-1.51-.9-2.34-3.24-3.2-3.13-1.12-4.61-2.84-4.61-4.93,0-2.81,2.27-5.11,6.01-5.11,1.76,0,3.31.5,4.28,1.08l-.79,2.3c-.68-.43-1.94-1.01-3.56-1.01-1.87,0-2.92,1.08-2.92,2.38,0,1.44,1.04,2.09,3.31,2.95,3.02,1.15,4.57,2.66,4.57,5.26,0,3.06-2.38,5.22-6.52,5.22-1.91,0-3.67-.47-4.9-1.19l.79-2.41Z"></path>
    <path class="st3" d="M859.93,184.06c.79-2.12,1.76-5.98,2.16-8.6l3.53-.36c-.83,3.06-2.41,7.06-3.42,8.75l-2.27.22Z"></path>
    <path class="st3" d="M872.82,184.68c1.44-.11,2.7-.5,3.46-1.33.86-1.01,1.19-2.38,1.19-6.55v-14.58h3.17v15.8c0,3.38-.54,5.58-2.09,7.16-1.4,1.4-3.71,1.98-5.4,1.98l-.32-2.48ZM880.99,157.32c.04,1.04-.72,1.94-1.98,1.94-1.19,0-1.94-.9-1.94-1.94,0-1.12.83-1.98,2.02-1.98s1.91.86,1.91,1.98Z"></path>
    <path class="st3" d="M900.39,174.89c0,1.8.04,3.38.14,4.75h-2.81l-.18-2.84h-.07c-.83,1.4-2.66,3.24-5.76,3.24-2.74,0-6.01-1.51-6.01-7.63v-10.19h3.17v9.65c0,3.31,1.01,5.54,3.89,5.54,2.12,0,3.6-1.48,4.18-2.88.18-.47.29-1.04.29-1.62v-10.69h3.17v12.67Z"></path>
    <path class="st3" d="M905.65,166.93c0-1.8-.04-3.28-.14-4.72h2.81l.18,2.88h.07c.86-1.66,2.88-3.28,5.76-3.28,2.41,0,6.16,1.44,6.16,7.42v10.4h-3.17v-10.04c0-2.81-1.04-5.15-4.03-5.15-2.09,0-3.71,1.48-4.25,3.24-.14.4-.22.94-.22,1.48v10.47h-3.17v-12.71Z"></path>
    <path class="st3" d="M929.3,157.21v5h4.54v2.41h-4.54v9.4c0,2.16.61,3.38,2.38,3.38.83,0,1.44-.11,1.84-.22l.14,2.38c-.61.25-1.58.43-2.81.43-1.48,0-2.66-.47-3.42-1.33-.9-.94-1.22-2.48-1.22-4.54v-9.5h-2.7v-2.41h2.7v-4.18l3.1-.83Z"></path>
    <path class="st3" d="M953.64,181.94c-1.98,1.04-4,1.44-6.41,1.44-5.9,0-10.91-4.32-10.91-11.23,0-7.42,5.15-13.82,13.14-13.82,6.26,0,10.47,4.39,10.47,10.4,0,5.4-3.02,8.57-6.41,8.57-1.44,0-2.77-.97-2.66-3.17h-.14c-1.26,2.12-2.92,3.17-5.08,3.17s-3.89-1.69-3.89-4.54c0-4.46,3.53-8.53,8.53-8.53,1.55,0,2.92.32,3.85.76l-1.22,6.52c-.54,2.74-.11,4,1.08,4.03,1.84.04,3.89-2.41,3.89-6.59,0-5.22-3.13-8.96-8.71-8.96-5.87,0-10.8,4.64-10.8,11.95,0,6.01,3.92,9.72,9.25,9.72,2.05,0,3.96-.43,5.44-1.26l.58,1.55ZM951.66,166.39c-.36-.11-.97-.25-1.8-.25-3.17,0-5.72,2.99-5.72,6.48,0,1.58.79,2.74,2.38,2.74,2.09,0,4-2.66,4.39-4.9l.76-4.07Z"></path>
    <path class="st3" d="M963.5,176.4c.94.61,2.59,1.26,4.18,1.26,2.3,0,3.38-1.15,3.38-2.59,0-1.51-.9-2.34-3.24-3.2-3.13-1.12-4.61-2.84-4.61-4.93,0-2.81,2.27-5.11,6.01-5.11,1.76,0,3.31.5,4.28,1.08l-.79,2.3c-.68-.43-1.94-1.01-3.56-1.01-1.87,0-2.92,1.08-2.92,2.38,0,1.44,1.04,2.09,3.31,2.95,3.02,1.15,4.57,2.66,4.57,5.26,0,3.06-2.38,5.22-6.52,5.22-1.91,0-3.67-.47-4.9-1.19l.79-2.41Z"></path>
    <path class="st3" d="M977.04,177.77c0-1.33.9-2.27,2.16-2.27s2.12.94,2.12,2.27-.83,2.27-2.16,2.27c-1.26,0-2.12-.97-2.12-2.27Z"></path>
  </g>
  <g>
    <path class="st4" d="M205.47,75.89c-11.83,70.85-122.71,147.13-155.52,130.19-7.64-3.94-11.85-9.62-11.85-9.62-5.98-8.52-3.04-15.22-5.8-28.64-2.54-12.34-6.03-11.52-12.79-29.87-5.46-14.82-7.41-26.76-7.8-29.48-1.93-13.27-3.97-27.37,1.23-43.84,2.45-7.76,5.58-17.66,15.21-24.82,2.19-1.62,11.34-8.5,23.03-7.03,4.44.56,8.75,2.26,16.14,7.63,17.46,12.69,16.98,20.37,24.57,24.22,21.31,10.79,50.3-36.97,88.82-30.19,3.7.65,13.4,2.5,19.77,10.37,8.4,10.38,6.01,24.99,4.99,31.09Z"></path>
    <g>
      <path class="st1" d="M108.91,103.09c0,11.78-13.75,22.74-13.75,22.74,0,0-13.75-10.96-13.75-22.74s13.75-23.44,13.75-23.44c0,0,13.75,11.66,13.75,23.44Z"></path>
      <path class="st1" d="M128.05,136.35c-11.06,11.58-32.13,11-32.13,11,0,0-.49-22.12,10.57-33.7,11.06-11.58,32.79-11.69,32.79-11.69,0,0-.17,22.81-11.23,34.39Z"></path>
      <path class="st1" d="M64.76,135.97c10.97,11.4,31.16,11.39,31.16,11.39,0,0-.2-21.2-11.17-32.6-10.97-11.4-31.81-12.07-31.81-12.07,0,0,.86,21.88,11.82,33.28Z"></path>
      <g>
        <line class="st2" x1="95.77" y1="147.39" x2="95.77" y2="175.39"></line>
        <line class="st0" x1="83.77" y1="164.39" x2="107.77" y2="164.39"></line>
      </g>
    </g>
  </g>
  <metadata></metadata>
</svg>
